<svg width="3200" height="1200" xmlns="http://www.w3.org/2000/svg" preserveAspectRatio="xMidYMid meet">
 <g>
  <title>background</title>
  <rect x="-1" y="-1" width="3202" height="1202" id="canvas_background" fill="none"/>
 </g>

 <g>
  <title>Layer 1</title>
  <g id="layer101" fill="#27c3c7" stroke="null">
   <path fill="#4a7589" d="m72.27661,1147.80772c-21.70927,-13.16791 -25.62405,-24.55638 -25.62405,-75.4486l0,-45.55387l149.11774,0l148.76186,0l9.60902,14.23559c25.97994,39.14786 86.12529,37.01252 108.19044,-3.91479c16.01504,-29.89472 4.62657,-71.8897 -23.48871,-86.48117c-29.18295,-14.94737 -55.51878,-9.60902 -79.36338,16.01503l-16.72682,17.43859l-148.05007,0l-148.05008,0l0,-64.06013l0,-64.06013l291.1177,0c277.94979,0 291.82948,-0.35589 297.16783,-6.40601c4.98245,-5.33835 6.05012,-14.23559 6.05012,-44.4862c0,-34.16541 0.71178,-37.7243 6.7619,-39.85964c10.67669,-3.20301 28.11528,-24.91227 32.74184,-41.28319c4.98246,-16.37093 0.71178,-40.21553 -10.32079,-54.807c-9.96491,-13.52381 -32.38596,-24.55639 -50.53633,-24.55639c-58.01001,0.35589 -85.41351,71.17792 -42.35086,109.96989c7.82957,6.76191 15.65914,12.45614 17.43859,12.45614c2.49122,0 3.55889,8.89724 2.84711,24.20049c-0.71177,13.16792 -2.13533,23.48872 -3.55889,23.13283c-1.77945,-0.71178 -125.27314,-1.06767 -275.10267,-1.06767l-272.25555,0l0,-40.92731l0,-40.9273l22.42104,0c22.06516,0 22.77694,0.35589 31.31829,13.16791c11.03258,16.72682 28.82706,25.97995 50.18043,25.97995c32.38596,0 53.02756,-14.94737 61.56891,-44.13032c20.99748,-69.75436 -73.31326,-114.59645 -112.81701,-53.73933c-7.82957,12.10025 -8.89724,12.45614 -30.25062,12.45614l-22.42104,0l0,-170.82701l0,-170.82702l79.71927,0c96.80197,0 91.10774,3.20301 91.10774,-51.60399l0,-35.58896l12.45614,-7.82957c23.8446,-15.65914 32.74184,-40.21553 24.91227,-69.39848c-5.69424,-23.13282 -20.6416,-38.08018 -43.06264,-43.77442c-30.9624,-7.82957 -59.43357,4.27068 -72.60149,30.25062c-14.59147,28.47117 -4.98245,67.97492 19.92982,82.56639c11.74436,6.7619 12.10025,7.82957 12.10025,29.89473l0,22.77693l-62.28068,0l-62.28068,0l0,-106.76688c0,-98.22553 0.71177,-108.19044 6.7619,-120.29069c13.16791,-25.62405 13.87969,-25.62405 180.08014,-25.62405l147.3383,0l1.06767,41.63908c0.71178,23.13283 0.71178,61.92479 0,86.48118l-1.06767,44.4862l-12.10025,7.82957c-37.36841,24.55638 -34.1654,85.7694 5.33835,106.76688c25.97994,13.8797 55.16289,9.60902 77.58393,-10.67669c12.10025,-11.38846 19.92982,-41.28319 14.94737,-59.43356c-4.27068,-15.65914 -21.35338,-37.36841 -32.38596,-40.92731c-6.40601,-2.13533 -6.7619,-6.40601 -6.7619,-89.32829l0,-86.83706l27.75939,0c14.94736,0 168.69167,-0.35589 341.65403,0c353.75427,0 332.045,-1.77945 345.9247,26.33583c6.05012,12.45613 7.11779,22.06515 7.11779,56.58645l0,41.63908l-258.01997,0c-163.35333,0 -258.01997,-1.42356 -258.01997,-3.55889c0,-1.77945 -4.98245,-8.89724 -11.03257,-16.01504c-28.11528,-32.03006 -82.92228,-25.26816 -101.78443,12.45614c-27.04761,53.38344 20.99748,108.19044 78.29571,89.32829c12.10025,-4.27067 34.52129,-25.26816 34.52129,-32.38595c0,-2.13534 94.66664,-3.5589 258.01997,-3.5589l258.01997,0l0,21.35338l0,21.35337l-165.13278,0c-149.11775,0 -165.48867,0.71178 -169.75935,6.05013c-3.203,3.91478 -5.33834,18.15037 -6.40601,43.41853c-1.06767,37.7243 -1.06767,37.7243 -12.10025,44.84209c-24.55638,16.01503 -34.1654,41.99497 -25.62405,71.17792c12.10025,42.70676 57.29823,58.3659 97.15787,33.80952c33.80951,-20.6416 33.09773,-81.85462 -1.06767,-104.27566c-12.10025,-7.47368 -12.45614,-8.54135 -12.45614,-31.67418l0,-24.20049l149.47364,0l149.47363,0l0,403.93471c0,446.64146 1.06767,423.50864 -22.77693,440.59134c-9.96491,7.11779 -16.37092,7.82957 -58.01001,8.89724l-47.33332,1.42356l0,-172.60646l0,-172.60646l12.45614,-7.47369c33.80951,-19.92981 39.14786,-69.39847 10.67669,-98.22553c-30.60651,-30.25062 -81.14283,-22.42105 -100.36087,16.01503c-14.94737,29.18295 -6.7619,62.63657 19.92982,80.78694l14.23558,9.96491l0.35589,171.89469l0,171.53879l-64.06013,0l-64.06013,0l0,-193.60395l0,-193.60395l12.45614,-7.47368c33.80951,-19.92982 38.79196,-69.75436 9.96491,-98.58142c-29.89473,-29.89473 -80.78695,-21.70927 -99.6491,16.37092c-14.94736,29.18295 -6.7619,62.63657 19.92982,80.78694l14.23559,9.96491l0.35589,193.24806l0,192.89217l-42.70676,0l-42.70675,0l0,-99.2932l0,-99.64909l-9.25313,-7.1178c-8.18546,-6.40601 -14.59147,-7.47368 -44.13031,-7.47368l-34.52129,0l-9.25313,-13.5238c-9.25313,-14.59148 -26.69172,-24.91228 -46.97743,-28.11528c-17.43859,-2.84712 -48.40099,12.10025 -58.3659,28.82706c-17.0827,27.4035 -11.74436,62.28068 12.10025,83.63406c28.82706,25.26816 78.6516,16.01503 96.44608,-17.79448c4.98246,-9.60902 6.40602,-10.3208 28.11528,-10.3208l23.13283,0l0,85.4135l0,85.41351l-299.65906,0c-293.25304,0 -300.37083,-0.35589 -311.75929,-7.11779l0,-0.00001zm368.70164,-386.852c23.48871,-17.4386 33.09773,-44.13032 25.62405,-70.82204c-4.62657,-16.72681 -24.91228,-40.57141 -34.52129,-40.57141c-3.5589,0 -4.62657,-6.40602 -4.62657,-24.91228l0,-24.91227l290.76181,0c265.49365,0 291.11771,-0.35589 297.16783,-6.05012c5.69423,-4.98246 6.40601,-12.10025 6.40601,-65.1278l0,-59.43357l13.16792,-8.54135c25.62405,-16.72681 34.1654,-39.50374 25.97994,-68.68669c-5.69423,-20.6416 -21.70927,-36.30074 -43.06264,-42.70676c-60.85713,-18.15037 -106.76689,58.01001 -62.99246,103.56388c6.40601,6.40601 14.23558,12.45614 17.79448,13.8797c5.69423,1.77944 6.40601,6.7619 6.40601,48.04509l0,45.90976l-291.47359,0c-260.5112,0 -292.18537,0.71178 -297.16783,5.69424c-4.62656,4.27067 -5.69423,13.87969 -5.69423,44.4862c0,30.25062 -1.06767,38.79197 -4.62657,38.79197c-8.54135,0 -30.6065,24.55638 -34.1654,38.43608c-5.69423,19.92981 -4.62656,29.53883 4.98246,49.46865c12.10024,24.2005 30.25061,34.1654 59.78945,32.03007c13.16792,-0.71178 23.8446,-3.5589 30.25062,-8.54135zm-173.67413,-126.69671c39.14785,-20.64159 42.35086,-82.2105 5.69423,-106.41099c-12.10025,-8.18546 -12.45614,-8.54135 -13.5238,-36.65663c-0.71178,-15.65914 -0.71178,-35.58896 0,-44.4862l1.42355,-16.01503l148.05008,0.71177l148.40597,0.71178l11.74436,14.59148c34.87718,41.63908 97.15786,29.18295 111.39344,-22.42105c7.47369,-27.75939 -5.33834,-58.01 -30.25061,-70.82203c-29.53884,-15.30325 -65.83958,-7.11779 -82.92228,19.21804l-9.25313,13.5238l-162.64155,0c-155.16787,0 -163.35334,0.35589 -171.18291,6.76191c-8.18546,6.7619 -8.54135,8.54135 -9.60902,66.90724c-0.71178,35.58896 -2.49122,60.14535 -4.62656,60.85713c-8.54135,3.203 -25.97994,20.99748 -30.25062,31.67417c-23.8446,56.58645 33.80951,110.32578 87.54885,81.85461z" id="svg_1" stroke="null"/>
   <path fill="#4a7589" d="m391.86548,720.74019c-3.91479,-3.91479 -7.11779,-10.3208 -7.11779,-14.23559c0,-9.60902 12.45613,-21.35337 22.42104,-21.35337c17.79448,0 27.04761,24.91227 13.8797,36.65663c-8.89724,8.18546 -20.6416,7.47368 -29.18295,-1.06767z" id="svg_2" stroke="null"/>
   <path fill="#4a7589" d="m984.06579,420.01347c-4.98245,-7.47368 -5.33834,-11.03258 -1.77945,-18.15037c7.82958,-17.43859 31.31829,-17.79448 37.36841,-0.35589c8.18546,22.42104 -22.77693,38.08019 -35.58896,18.50626z" id="svg_3" stroke="null"/>
   <path fill="#4a7589" d="m225.30914,597.24649c-14.59147,-5.69423 -10.67669,-34.87718 5.33835,-38.79196c11.03257,-2.84712 17.0827,0 24.20049,10.67668c4.98246,7.1178 4.98246,10.3208 1.42356,17.08271c-6.7619,12.81202 -17.0827,16.72681 -30.9624,11.03257z" id="svg_4" stroke="null"/>
   <path fill="#4a7589" d="m604.33158,422.5047c-9.25313,-9.96491 -7.47368,-24.55639 3.203,-31.31829c19.57393,-13.16792 41.63909,8.89724 28.47117,28.47117c-7.11779,11.03258 -23.13282,12.45613 -31.67417,2.84712z" id="svg_5" stroke="null"/>
   <path fill="#4a7589" d="m391.86548,1019.68746c-13.8797,-13.87969 -4.98246,-35.58896 15.30325,-35.58896c9.96491,0 20.28571,11.38847 20.28571,22.06516c0,8.54135 -12.45614,20.64159 -21.35338,20.64159c-3.91478,0 -10.3208,-3.203 -14.23558,-7.11779z" id="svg_6" stroke="null"/>
   <path fill="#4a7589" d="m562.69249,976.98071c-9.60902,-9.60902 -9.25313,-23.13283 0.71178,-29.89473c22.77694,-16.01503 47.33332,10.3208 27.75939,29.89473c-3.91478,3.91479 -10.3208,7.11779 -14.23558,7.11779c-3.91479,0 -10.3208,-3.20301 -14.23559,-7.11779z" id="svg_7" stroke="null"/>
   <path fill="#4a7589" d="m986.20113,763.44694c-3.91479,-3.91478 -7.11779,-10.3208 -7.11779,-14.23558c0,-9.60902 12.45614,-21.35338 22.42105,-21.35338c17.79448,0 27.04761,24.91227 13.87969,36.65663c-8.89724,8.18546 -20.6416,7.47368 -29.18295,-1.06767z" id="svg_8" stroke="null"/>
   <path fill="#4a7589" d="m135.26907,720.3843c-12.81203,-12.81203 -2.13534,-35.23307 16.37092,-35.23307c17.0827,0 25.97994,24.91227 13.16792,36.65663c-8.89724,8.18546 -20.6416,7.47368 -29.53884,-1.42356z" id="svg_9" stroke="null"/>
   <path fill="#4a7589" d="m604.33158,721.45197c-12.10025,-13.52381 -3.20301,-36.30074 13.87969,-36.30074c8.89724,0 13.52381,3.55889 18.86215,13.16791c10.67669,20.28571 -17.43859,40.21553 -32.74184,23.13283z" id="svg_10" stroke="null"/>
   <path fill="#4a7589" d="m817.50946,722.16375c-12.45614,-12.10025 -2.84712,-37.01252 14.23558,-37.01252c8.89724,0 13.5238,3.55889 18.86215,13.16791c10.3208,19.92982 -17.0827,39.85964 -33.09774,23.84461l0.00001,0z" id="svg_11" stroke="null"/>
   <path fill="#4a7589" d="m818.22123,424.99592c-10.32079,-6.05012 -8.54135,-26.69172 2.84712,-34.1654c8.18546,-5.33835 10.3208,-5.33835 18.50626,-0.71178c11.38847,6.40601 15.65914,17.79448 9.96491,28.47117c-4.62656,9.60902 -20.99749,12.81202 -31.31829,6.40601z" id="svg_12" stroke="null"/>
   <path fill="#4a7589" d="m399.69505,300.43456c-13.87969,-5.33835 -17.0827,-25.97994 -5.69423,-35.58896c7.47368,-6.05013 23.48871,-4.98246 28.82706,2.49122c13.5238,18.50626 -2.13534,40.92731 -23.13283,33.09774z" id="svg_13" stroke="null"/>
   <path fill="#4a7589" d="m176.19638,206.4797c-4.98246,-7.47368 -5.33835,-11.03258 -2.13534,-18.15037c10.3208,-22.06516 39.85963,-17.0827 39.85963,6.7619c0,6.40602 -1.77944,13.52381 -4.27067,16.01504c-7.82957,7.82957 -27.04761,5.33834 -33.45362,-4.62657z" id="svg_14" stroke="null"/>
   <path fill="#4a7589" d="m561.26894,209.68271c-12.81203,-12.81203 -3.20301,-33.45363 15.65914,-33.45363c12.45613,0 21.35338,8.18547 21.35338,19.57393c0,11.38847 -8.89724,19.57393 -21.35338,19.57393c-5.69424,0 -12.81203,-2.49123 -15.65914,-5.69423z" id="svg_15" stroke="null"/>
  </g>
  <g stroke="null" id="svg_26">
   <g stroke="null" id="svg_19" fill="#df5d5d" transform="matrix(0.38193547557351576,0,0,0.45817596552914636,-4696833.116352632,-5393678.0728524085) ">
    <path fill="#ce4a4a" stroke="null" d="m12301391.227729,11774020.841002l-95,-78l-160,-5c-130,-4 -172,-9 -225,-27c-150,-52 -247,-149 -302,-303c-20,-57 -22,-82 -22,-263c-1,-138 3,-217 13,-255c42,-170 171,-302 336,-345c87,-22 499,-22 576,1c158,47 265,147 320,300c19,51 23,86 26,254c5,216 -5,286 -53,382c-35,70 -123,160 -190,195c-30,15 -54,31 -54,35c0,3 50,46 110,94c61,48 110,89 110,91c0,2 -66,3 -147,2l-148,0l-95,-78zm81,-306c62,-21 115,-67 147,-129c27,-51 27,-53 27,-251c0,-200 0,-200 -29,-258c-18,-38 -43,-69 -69,-88c-69,-50 -120,-59 -327,-59c-233,0 -272,9 -347,84c-75,75 -86,120 -81,339c3,165 4,174 31,229c32,64 81,108 147,131c64,23 436,24 501,2z" id="svg_21"/>
    <path fill="#ce4a4a" stroke="null" d="m12302081.227729,11773329.841002l0,-590l105,0l105,0l0,590l0,590l-105,0l-105,0l0,-590z" id="svg_22"/>
    <path fill="#ce4a4a" stroke="null" d="m12302693.227729,11773900.841002c-70,-24 -118,-65 -156,-131l-31,-55l-3,-218c-4,-251 3,-286 70,-362c77,-88 146,-105 423,-105c266,0 326,14 404,93c71,71 81,115 81,356c0,237 -7,272 -70,344c-23,25 -62,54 -92,68c-51,23 -63,24 -313,26c-232,3 -266,1 -313,-16zm511,-191c15,0 36,-9 47,-20c19,-19 20,-33 20,-214l0,-195l-26,-20c-25,-20 -39,-21 -256,-21l-229,0l-24,25c-25,24 -25,26 -25,212c1,218 3,224 78,233c38,4 200,4 415,0z" id="svg_23"/>
    <path fill="#ce4a4a" stroke="null" d="m12304081.227729,11773434.841002l0,-485l-237,-2l-238,-3l0,-100l0,-100l578,-3l577,-2l0,105l0,105l-235,0l-235,0l0,485l0,485l-105,0l-105,0l0,-485z" id="svg_24"/>
    <path fill="#ce4a4a" stroke="null" d="m12304801.227729,11773814.841002l0,-105l312,1l312,1l24,-28c20,-22 23,-35 19,-67c-3,-22 -15,-49 -26,-61c-20,-20 -35,-21 -255,-26l-233,-5l-49,-30c-69,-43 -105,-106 -112,-194c-8,-116 43,-199 154,-248c33,-15 80,-18 332,-21l292,-4l0,106l0,106l-273,0c-199,0 -276,3 -285,12c-18,18 -14,56 7,68c12,6 105,10 228,11c133,0 220,5 240,12c111,41 184,149 186,274c2,146 -64,242 -197,287c-39,13 -100,16 -361,16l-315,0l0,-105z" id="svg_25"/>
   </g>
  </g>
 </g>
</svg>