<svg width="1200" height="1574" xmlns="http://www.w3.org/2000/svg" preserveAspectRatio="xMidYMid meet">

 <g>
  <title>background</title>
  <rect fill="none" id="canvas_background" height="1576" width="1202" y="-1" x="-1"/>
 </g>
 <g>
  <title>Layer 1</title>
  <g stroke="null" fill="#27c3c7" id="layer101">
   <path stroke="null" id="svg_1" d="m72.276609,1147.807723c-21.709266,-13.167916 -25.624052,-24.556383 -25.624052,-75.448598l0,-45.55387l149.117747,0l148.761857,0l9.60902,14.235584c25.979942,39.147857 86.125286,37.01252 108.190442,-3.914786c16.015033,-29.894727 4.626565,-71.889701 -23.488714,-86.481176c-29.182948,-14.947364 -55.518779,-9.60902 -79.363383,16.015033l-16.726812,17.438591l-148.050078,0l-148.050078,0l0,-64.06013l0,-64.06013l291.117702,0c277.949786,0 291.829481,-0.35589 297.167825,-6.406013c4.982455,-5.338344 6.050123,-14.235584 6.050123,-44.486201c0,-34.165403 0.711779,-37.724299 6.761903,-39.859636c10.676688,-3.203007 28.115279,-24.912273 32.741844,-41.283195c4.982455,-16.370922 0.711779,-40.215526 -10.320799,-54.807c-9.964909,-13.523805 -32.385955,-24.556383 -50.536325,-24.556383c-58.010007,0.35589 -85.413507,71.177922 -42.350864,109.96989c7.829571,6.761903 15.659143,12.456136 17.438591,12.456136c2.491227,0 3.558896,8.89724 2.847117,24.200494c-0.711779,13.167916 -2.135338,23.488714 -3.558896,23.132825c-1.779448,-0.711779 -125.273143,-1.067669 -275.102669,-1.067669l-272.255553,0l0,-40.927305l0,-40.927305l22.421046,0c22.065156,0 22.776935,0.35589 31.318286,13.167916c11.032578,16.726812 28.827059,25.979942 50.180435,25.979942c32.385955,0 53.027552,-14.947364 61.568903,-44.130312c20.997487,-69.754364 -73.31326,-114.596455 -112.817007,-53.739331c-7.829571,12.100247 -8.89724,12.456136 -30.250617,12.456136l-22.421046,0l0,-170.827013l0,-170.827013l79.719273,0c96.801974,0 91.10774,3.203007 91.10774,-51.603994l0,-35.588961l12.456136,-7.829571c23.844604,-15.659143 32.741844,-40.215526 24.912273,-69.398474c-5.694234,-23.132825 -20.641597,-38.080188 -43.062643,-43.774422c-30.962396,-7.829571 -59.433565,4.270675 -72.601481,30.250617c-14.591474,28.471169 -4.982455,67.974916 19.929818,82.56639c11.744357,6.761903 12.100247,7.829571 12.100247,29.894727l0,22.776935l-62.280682,0l-62.280682,0l0,-106.766883c0,-98.225533 0.711779,-108.190442 6.761903,-120.290689c13.167916,-25.624052 13.879695,-25.624052 180.080143,-25.624052l147.338299,0l1.067669,41.639085c0.711779,23.132825 0.711779,61.924792 0,86.481176l-1.067669,44.486201l-12.100247,7.829571c-37.368409,24.556383 -34.165403,85.769396 5.338344,106.766883c25.979942,13.879695 55.16289,9.60902 77.583935,-10.676688c12.100247,-11.388468 19.929818,-41.283195 14.947364,-59.433565c-4.270675,-15.659143 -21.353377,-37.368409 -32.385955,-40.927305c-6.406013,-2.135338 -6.761903,-6.406013 -6.761903,-89.328292l0,-86.837065l27.75939,0c14.947364,0 168.691676,-0.35589 341.654027,0c353.754274,0 332.045007,-1.779448 345.924702,26.335831c6.050123,12.456136 7.117792,22.065156 7.117792,56.586448l0,41.639085l-258.019968,0c-163.353332,0 -258.019968,-1.423558 -258.019968,-3.558896c0,-1.779448 -4.982455,-8.89724 -11.032578,-16.015033c-28.115279,-32.030065 -82.922279,-25.268162 -101.784429,12.456136c-27.04761,53.383442 20.997487,108.190442 78.295714,89.328292c12.100247,-4.270675 34.521292,-25.268162 34.521292,-32.385955c0,-2.135338 94.666637,-3.558896 258.019968,-3.558896l258.019968,0l0,21.353377l0,21.353377l-165.13278,0c-149.117747,0 -165.488669,0.711779 -169.759345,6.050123c-3.203007,3.914786 -5.338344,18.15037 -6.406013,43.418533c-1.067669,37.724299 -1.067669,37.724299 -12.100247,44.842091c-24.556383,16.015033 -34.165403,41.994974 -25.624052,71.177922c12.100247,42.706753 57.298227,58.365896 97.157864,33.809513c33.809513,-20.641597 33.097734,-81.854611 -1.067669,-104.275656c-12.100247,-7.473682 -12.456136,-8.541351 -12.456136,-31.674175l0,-24.200494l149.473637,0l149.473637,0l0,403.934709c0,446.641462 1.067669,423.508637 -22.776935,440.591339c-9.964909,7.117792 -16.370922,7.829571 -58.010007,8.89724l-47.333318,1.423558l0,-172.606461l0,-172.606461l12.456136,-7.473682c33.809513,-19.929818 39.147857,-69.398474 10.676688,-98.225533c-30.606507,-30.250617 -81.142831,-22.421046 -100.36087,16.015033c-14.947364,29.182948 -6.761903,62.636572 19.929818,80.786942l14.235584,9.964909l0.35589,171.894682l0,171.538793l-64.06013,0l-64.06013,0l0,-193.603948l0,-193.603948l12.456136,-7.473682c33.809513,-19.929818 38.791968,-69.754364 9.964909,-98.581422c-29.894727,-29.894727 -80.786942,-21.709266 -99.649091,16.370922c-14.947364,29.182948 -6.761903,62.636572 19.929818,80.786942l14.235584,9.964909l0.35589,193.248059l0,192.892169l-42.706753,0l-42.706753,0l0,-99.293202l0,-99.649091l-9.25313,-7.117792c-8.185461,-6.406013 -14.591474,-7.473682 -44.130312,-7.473682l-34.521292,0l-9.25313,-13.523805c-9.25313,-14.591474 -26.691721,-24.912273 -46.977429,-28.115279c-17.438591,-2.847117 -48.400987,12.100247 -58.365896,28.827059c-17.082701,27.4035 -11.744357,62.280682 12.100247,83.634059c28.827059,25.268162 78.651604,16.015033 96.446085,-17.794481c4.982455,-9.60902 6.406013,-10.320799 28.115279,-10.320799l23.132825,0l0,85.413507l0,85.413507l-299.659053,0c-293.25304,0 -300.370832,-0.35589 -311.759299,-7.117792zm368.701637,-386.852007c23.488714,-17.438591 33.097734,-44.130312 25.624052,-70.822033c-4.626565,-16.726812 -24.912273,-40.571416 -34.521292,-40.571416c-3.558896,0 -4.626565,-6.406013 -4.626565,-24.912273l0,-24.912273l290.761812,0c265.49365,0 291.117702,-0.35589 297.167825,-6.050123c5.694234,-4.982455 6.406013,-12.100247 6.406013,-65.127799l0,-59.433565l13.167916,-8.541351c25.624052,-16.726812 34.165403,-39.503747 25.979942,-68.686695c-5.694234,-20.641597 -21.709266,-36.30074 -43.062643,-42.706753c-60.857124,-18.15037 -106.766883,58.010007 -62.992461,103.563877c6.406013,6.406013 14.235584,12.456136 17.794481,13.879695c5.694234,1.779448 6.406013,6.761903 6.406013,48.045098l0,45.90976l-291.473592,0c-260.511195,0 -292.185371,0.711779 -297.167825,5.694234c-4.626565,4.270675 -5.694234,13.879695 -5.694234,44.486201c0,30.250617 -1.067669,38.791968 -4.626565,38.791968c-8.541351,0 -30.606507,24.556383 -34.165403,38.436078c-5.694234,19.929818 -4.626565,29.538838 4.982455,49.468656c12.100247,24.200494 30.250617,34.165403 59.789455,32.030065c13.167916,-0.711779 23.844604,-3.558896 30.250617,-8.541351zm-173.67413,-126.696702c39.147857,-20.641597 42.350864,-82.2105 5.694234,-106.410994c-12.100247,-8.185461 -12.456136,-8.541351 -13.523805,-36.65663c-0.711779,-15.659143 -0.711779,-35.588961 0,-44.486201l1.423558,-16.015033l148.050078,0.711779l148.405968,0.711779l11.744357,14.591474c34.877182,41.639085 97.157864,29.182948 111.393448,-22.421046c7.473682,-27.75939 -5.338344,-58.010007 -30.250617,-70.822033c-29.538838,-15.303253 -65.839578,-7.117792 -82.922279,19.218039l-9.25313,13.523805l-162.641552,0c-155.16787,0 -163.353332,0.35589 -171.182903,6.761903c-8.185461,6.761903 -8.541351,8.541351 -9.60902,66.907247c-0.711779,35.588961 -2.491227,60.145344 -4.626565,60.857124c-8.541351,3.203007 -25.979942,20.997487 -30.250617,31.674175c-23.844604,56.586448 33.809513,110.325779 87.548844,81.854611z"/>
   <path stroke="null" id="svg_2" d="m391.86548,720.740189c-3.914786,-3.914786 -7.117792,-10.320799 -7.117792,-14.235584c0,-9.60902 12.456136,-21.353377 22.421046,-21.353377c17.794481,0 27.04761,24.912273 13.879695,36.65663c-8.89724,8.185461 -20.641597,7.473682 -29.182948,-1.067669z"/>
   <path stroke="null" id="svg_3" d="m984.065793,420.013468c-4.982455,-7.473682 -5.338344,-11.032578 -1.779448,-18.15037c7.829571,-17.438591 31.318286,-17.794481 37.368409,-0.35589c8.185461,22.421046 -22.776935,38.080188 -35.588961,18.50626z"/>
   <path stroke="null" id="svg_4" d="m225.309142,597.246494c-14.591474,-5.694234 -10.676688,-34.877182 5.338344,-38.791968c11.032578,-2.847117 17.082701,0 24.200494,10.676688c4.982455,7.117792 4.982455,10.320799 1.423558,17.082701c-6.761903,12.812026 -17.082701,16.726812 -30.962396,11.032578z"/>
   <path stroke="null" id="svg_5" d="m604.331578,422.504695c-9.25313,-9.964909 -7.473682,-24.556383 3.203007,-31.318286c19.573929,-13.167916 41.639085,8.89724 28.471169,28.471169c-7.117792,11.032578 -23.132825,12.456136 -31.674175,2.847117z"/>
   <path stroke="null" id="svg_6" d="m391.86548,1019.687462c-13.879695,-13.879695 -4.982455,-35.588961 15.303253,-35.588961c9.964909,0 20.285708,11.388468 20.285708,22.065156c0,8.541351 -12.456136,20.641597 -21.353377,20.641597c-3.914786,0 -10.320799,-3.203007 -14.235584,-7.117792z"/>
   <path stroke="null" id="svg_7" d="m562.692493,976.980709c-9.60902,-9.60902 -9.25313,-23.132825 0.711779,-29.894727c22.776935,-16.015033 47.333318,10.320799 27.75939,29.894727c-3.914786,3.914786 -10.320799,7.117792 -14.235584,7.117792c-3.914786,0 -10.320799,-3.203007 -14.235584,-7.117792z"/>
   <path stroke="null" id="svg_8" d="m986.201131,763.446942c-3.914786,-3.914786 -7.117792,-10.320799 -7.117792,-14.235584c0,-9.60902 12.456136,-21.353377 22.421046,-21.353377c17.794481,0 27.04761,24.912273 13.879695,36.65663c-8.89724,8.185461 -20.641597,7.473682 -29.182948,-1.067669z"/>
   <path stroke="null" id="svg_9" d="m135.26907,720.384299c-12.812026,-12.812026 -2.135338,-35.233072 16.370922,-35.233072c17.082701,0 25.979942,24.912273 13.167916,36.65663c-8.89724,8.185461 -20.641597,7.473682 -29.538838,-1.423558z"/>
   <path stroke="null" id="svg_10" d="m604.331578,721.451968c-12.100247,-13.523805 -3.203007,-36.30074 13.879695,-36.30074c8.89724,0 13.523805,3.558896 18.862149,13.167916c10.676688,20.285708 -17.438591,40.215526 -32.741844,23.132825z"/>
   <path stroke="null" id="svg_11" d="m817.509455,722.163748c-12.456136,-12.100247 -2.847117,-37.01252 14.235584,-37.01252c8.89724,0 13.523805,3.558896 18.862149,13.167916c10.320799,19.929818 -17.082701,39.859636 -33.097734,23.844604z"/>
   <path stroke="null" id="svg_12" d="m818.221234,424.995922c-10.320799,-6.050123 -8.541351,-26.691721 2.847117,-34.165403c8.185461,-5.338344 10.320799,-5.338344 18.50626,-0.711779c11.388468,6.406013 15.659143,17.794481 9.964909,28.471169c-4.626565,9.60902 -20.997487,12.812026 -31.318286,6.406013z"/>
   <path stroke="null" id="svg_13" d="m399.695051,300.434558c-13.879695,-5.338344 -17.082701,-25.979942 -5.694234,-35.588961c7.473682,-6.050123 23.488714,-4.982455 28.827059,2.491227c13.523805,18.50626 -2.135338,40.927305 -23.132825,33.097734z"/>
   <path stroke="null" id="svg_14" d="m176.196376,206.479701c-4.982455,-7.473682 -5.338344,-11.032578 -2.135338,-18.15037c10.320799,-22.065156 39.859636,-17.082701 39.859636,6.761903c0,6.406013 -1.779448,13.523805 -4.270675,16.015033c-7.829571,7.829571 -27.04761,5.338344 -33.453623,-4.626565z"/>
   <path stroke="null" id="svg_15" d="m561.268935,209.682707c-12.812026,-12.812026 -3.203007,-33.453623 15.659143,-33.453623c12.456136,0 21.353377,8.185461 21.353377,19.573929c0,11.388468 -8.89724,19.573929 -21.353377,19.573929c-5.694234,0 -12.812026,-2.491227 -15.659143,-5.694234z"/>
  </g>
  <g stroke="null" id="svg_26">
   <g stroke="null" transform="matrix(0.21624710604541175,0,0,0.2426737309154871,-2658764.673182,-2856559.9913456123) " fill="#df5d5d" id="svg_19">
    <path stroke="null" id="svg_21" d="m12296065.265704,11777347.759517l-95,-78l-160,-5c-130,-4 -172,-9 -225,-27c-150,-52 -247,-149 -302,-303c-20,-57 -22,-82 -22,-263c-1,-138 3,-217 13,-255c42,-170 171,-302 336,-345c87,-22 499,-22 576,1c158,47 265,147 320,300c19,51 23,86 26,254c5,216 -5,286 -53,382c-35,70 -123,160 -190,195c-30,15 -54,31 -54,35c0,3 50,46 110,94c61,48 110,89 110,91c0,2 -66,3 -147,2l-148,0l-95,-78zm81,-306c62,-21 115,-67 147,-129c27,-51 27,-53 27,-251c0,-200 0,-200 -29,-258c-18,-38 -43,-69 -69,-88c-69,-50 -120,-59 -327,-59c-233,0 -272,9 -347,84c-75,75 -86,120 -81,339c3,165 4,174 31,229c32,64 81,108 147,131c64,23 436,24 501,2z"/>
    <path stroke="null" id="svg_22" d="m12296755.265704,11776656.759517l0,-590l105,0l105,0l0,590l0,590l-105,0l-105,0l0,-590z"/>
    <path stroke="null" id="svg_23" d="m12297367.265704,11777227.759517c-70,-24 -118,-65 -156,-131l-31,-55l-3,-218c-4,-251 3,-286 70,-362c77,-88 146,-105 423,-105c266,0 326,14 404,93c71,71 81,115 81,356c0,237 -7,272 -70,344c-23,25 -62,54 -92,68c-51,23 -63,24 -313,26c-232,3 -266,1 -313,-16zm511,-191c15,0 36,-9 47,-20c19,-19 20,-33 20,-214l0,-195l-26,-20c-25,-20 -39,-21 -256,-21l-229,0l-24,25c-25,24 -25,26 -25,212c1,218 3,224 78,233c38,4 200,4 415,0z"/>
    <path stroke="null" id="svg_24" d="m12298755.265704,11776761.759517l0,-485l-237,-2l-238,-3l0,-100l0,-100l578,-3l577,-2l0,105l0,105l-235,0l-235,0l0,485l0,485l-105,0l-105,0l0,-485z"/>
    <path stroke="null" id="svg_25" d="m12299475.265704,11777141.759517l0,-105l312,1l312,1l24,-28c20,-22 23,-35 19,-67c-3,-22 -15,-49 -26,-61c-20,-20 -35,-21 -255,-26l-233,-5l-49,-30c-69,-43 -105,-106 -112,-194c-8,-116 43,-199 154,-248c33,-15 80,-18 332,-21l292,-4l0,106l0,106l-273,0c-199,0 -276,3 -285,12c-18,18 -14,56 7,68c12,6 105,10 228,11c133,0 220,5 240,12c111,41 184,149 186,274c2,146 -64,242 -197,287c-39,13 -100,16 -361,16l-315,0l0,-105z"/>
   </g>
  </g>
 </g>
</svg>